<?xml version="1.0" standalone="no"?>
<!DOCTYPE svg PUBLIC "-//W3C//DTD SVG 20010904//EN"
 "http://www.w3.org/TR/2001/REC-SVG-20010904/DTD/svg10.dtd">
<svg version="1.0" xmlns="http://www.w3.org/2000/svg"
 width="1500.000000pt" height="1500.000000pt" viewBox="0 0 1500.000000 1500.000000"
 preserveAspectRatio="xMidYMid meet">
<metadata>
Created by potrace 1.14, written by Peter Selinger 2001-2017
</metadata>
<g transform="translate(0.000000,1500.000000) scale(0.100000,-0.100000)"
fill="#000000" stroke="none">
<path d="M7345 14333 c-29 -3 -48 -14 -73 -41 l-34 -37 28 35 27 35 -33 3
c-18 2 -42 1 -54 -2 -22 -6 -106 -114 -157 -203 l-30 -52 25 -16 c57 -38 189
-5 270 66 45 40 102 139 108 189 3 28 -6 30 -77 23z"/>
<path d="M7455 14284 c-28 -98 -70 -158 -148 -215 -34 -25 -36 -28 -17 -34 26
-8 43 -40 34 -67 -5 -17 -3 -20 12 -15 11 3 48 14 83 24 56 16 66 22 78 51 7
17 19 33 26 33 41 4 59 -13 51 -46 -4 -17 2 -22 38 -32 60 -16 101 -61 101
-111 0 -55 -48 -138 -103 -180 -25 -18 -74 -53 -110 -75 l-65 -42 -72 -215
c-39 -118 -72 -212 -72 -208 -1 7 75 329 85 361 8 26 -8 21 -57 -19 -33 -27
-30 -23 12 18 l57 53 46 194 c25 107 44 196 42 199 -10 9 -172 -54 -219 -85
-87 -58 -214 -77 -257 -38 -51 46 -62 111 -36 198 11 35 11 57 4 87 -8 29 -7
57 1 97 6 31 11 62 11 69 0 9 -30 6 -112 -12 -286 -60 -539 -151 -808 -288
-124 -63 -125 -64 -122 -96 10 -93 -55 -186 -185 -266 -43 -26 -85 -53 -94
-61 -8 -7 -42 -97 -74 -199 -33 -102 -61 -182 -62 -177 -2 5 14 82 35 171 22
89 37 162 34 162 -14 0 -76 -56 -93 -84 -15 -25 -19 -27 -19 -11 0 11 27 46
63 80 61 58 64 64 85 145 11 46 20 86 18 87 -5 5 -209 -148 -326 -245 -104
-87 -540 -511 -540 -526 0 -7 -175 -222 -231 -284 -22 -23 -39 -47 -39 -52 0
-12 -101 -150 -124 -169 -9 -7 -16 -18 -16 -23 0 -6 -47 -83 -104 -172 -57
-88 -144 -233 -194 -321 -134 -240 -321 -619 -310 -630 3 -3 42 5 86 17 73 21
82 26 88 51 7 34 31 48 63 36 19 -8 22 -14 18 -37 -5 -26 -2 -29 36 -41 99
-29 132 -103 87 -196 -27 -56 -95 -120 -192 -179 -70 -44 -83 -56 -94 -91 -7
-22 -38 -120 -69 -218 -31 -98 -58 -177 -60 -175 -2 2 17 86 41 187 25 101 43
188 42 193 -5 15 -72 -41 -95 -80 -13 -20 -23 -32 -23 -27 0 23 42 75 84 107
l45 33 50 209 c28 115 50 210 49 211 -2 2 -45 -11 -97 -29 l-94 -31 -85 -210
c-427 -1067 -653 -2286 -653 -3520 1 -853 84 -1588 266 -2360 77 -324 245
-865 357 -1149 l43 -109 49 -1 c46 -1 52 3 122 64 72 63 74 66 74 112 0 88 20
150 60 191 42 41 77 48 103 19 38 -42 11 -127 -70 -220 l-40 -48 -5 -139 c-6
-164 -28 -248 -84 -321 l-36 -47 33 -69 c32 -67 34 -68 64 -62 40 9 45 12 45
33 0 33 25 55 53 47 23 -5 27 -12 27 -40 0 -30 4 -34 42 -45 23 -7 54 -26 70
-41 54 -54 29 -160 -57 -239 l-43 -40 85 -143 c376 -629 838 -1162 1327 -1530
133 -100 113 -98 194 -24 29 27 32 35 32 86 0 80 24 153 61 184 75 64 138 -6
95 -107 -7 -18 -36 -60 -65 -95 l-52 -62 3 -86 3 -87 90 -54 c303 -183 702
-340 1039 -408 l111 -23 6 22 c24 82 28 115 18 151 -32 115 73 310 188 349 26
9 65 16 88 16 38 0 50 7 113 63 71 62 71 62 72 115 0 80 19 139 55 178 54 56
115 39 115 -32 0 -49 -20 -91 -75 -159 l-48 -59 -2 -130 c-2 -106 -6 -143 -24
-197 -28 -81 -81 -154 -142 -195 l-46 -31 28 -10 c25 -10 29 -17 29 -48 0 -34
2 -37 23 -31 12 3 53 15 92 25 57 15 71 23 75 41 13 53 75 50 75 -3 -1 -21 7
-29 41 -42 23 -9 48 -23 54 -31 17 -20 63 -18 235 11 225 37 405 85 605 162
205 79 227 91 234 126 10 50 50 130 87 172 44 49 120 85 183 85 45 0 53 4 116
60 l67 60 7 77 c11 122 57 193 125 193 24 0 51 -36 51 -69 0 -37 -36 -105 -86
-160 -40 -44 -44 -54 -44 -100 0 -28 3 -51 6 -51 12 0 188 132 319 239 155
127 422 390 564 556 279 325 561 743 776 1149 l66 124 -69 -22 c-38 -12 -83
-34 -101 -48 -35 -30 -145 -68 -196 -68 -97 0 -144 75 -122 195 5 28 10 97 11
155 1 91 4 112 28 162 39 83 112 153 182 173 31 9 69 15 86 13 24 -2 42 8 103
62 l74 65 5 82 c4 59 12 92 29 123 38 67 104 90 133 48 33 -47 10 -115 -70
-213 l-49 -60 -1 -135 c-1 -139 -17 -217 -61 -289 -26 -41 -95 -111 -128 -128
l-30 -16 25 -9 c30 -11 40 -25 40 -60 0 -33 -2 -33 68 -11 32 10 61 27 69 40
30 45 175 368 253 565 147 367 299 849 390 1238 116 496 211 1120 236 1555 3
61 8 128 10 150 12 126 15 849 5 1075 -49 1077 -258 2092 -623 3028 -51 130
-53 133 -68 111 -35 -54 -76 -91 -168 -152 l-97 -64 -65 -204 c-55 -176 -93
-283 -76 -214 17 71 86 365 86 370 0 15 -23 0 -64 -40 -26 -25 -42 -37 -37
-26 11 19 69 73 95 88 9 5 33 84 65 218 27 115 48 211 47 212 -7 7 -194 -62
-211 -77 -61 -57 -228 -90 -281 -56 -51 34 -67 119 -40 209 10 35 11 58 4 93
-7 32 -7 64 1 102 32 158 146 271 276 272 39 1 56 6 79 26 l29 26 -17 36 c-30
63 -174 298 -274 446 -153 229 -349 481 -514 662 -156 173 -417 414 -602 558
-99 77 -99 77 -120 57 -12 -10 -52 -38 -91 -61 -38 -23 -79 -52 -90 -65 l-20
-24 -3 53 c-2 31 6 88 17 134 12 44 21 87 21 95 0 13 -110 87 -130 87 -5 0
-20 10 -34 23 -34 31 -282 154 -421 209 -334 132 -664 203 -1037 223 l-116 7
-17 -58z m683 -631 c-127 -135 -230 -335 -287 -561 -45 -176 -54 -272 -60
-672 l-6 -385 -135 -129 c-74 -71 -227 -211 -339 -310 -385 -341 -419 -371
-519 -464 -55 -51 -103 -89 -106 -84 -5 9 211 211 354 332 99 84 251 220 395
355 72 67 152 141 178 166 l48 44 1 300 c0 336 9 489 39 650 62 331 208 602
414 766 33 27 64 48 69 49 5 0 -16 -26 -46 -57z m534 -10 c34 -30 51 -117 45
-223 -13 -214 -108 -422 -328 -715 -92 -124 -291 -357 -358 -419 -29 -28 -31
-29 -31 -8 0 12 25 49 56 84 247 276 423 548 501 773 24 72 27 94 28 220 0
122 -3 144 -20 173 -10 17 -28 35 -38 38 -34 11 -103 6 -143 -10 l-39 -16 35
31 c97 84 239 120 292 72z m-2861 -1399 c18 -22 14 -85 -10 -131 -11 -22 -39
-61 -64 -89 l-45 -49 -4 -155 c-4 -129 -8 -164 -26 -210 -31 -78 -85 -147
-144 -183 l-50 -31 31 -8 c32 -9 49 -42 37 -73 -6 -17 4 -19 36 -5 13 5 49 17
80 25 51 14 58 20 68 51 11 31 15 35 43 32 29 -3 32 -6 31 -35 -2 -30 1 -33
47 -48 60 -20 99 -64 99 -111 0 -42 -24 -104 -41 -104 -7 0 -8 7 -4 18 25 58
28 90 12 116 -22 32 -54 54 -94 62 l-32 6 -42 -131 c-36 -115 -45 -134 -70
-147 -37 -19 -37 -20 1 141 17 70 30 129 28 130 -7 7 -187 -62 -215 -83 -70
-50 -184 -78 -248 -61 -68 19 -97 105 -71 209 11 42 13 73 8 98 -14 62 5 162
43 227 57 96 148 155 242 155 41 0 51 5 119 66 l74 66 0 62 c0 84 16 134 55
173 37 37 83 44 106 17z m3563 -6 c33 -47 8 -119 -73 -216 l-45 -53 -2 -137
c-2 -144 -15 -212 -56 -282 -29 -48 -97 -118 -133 -137 l-30 -16 25 -9 c30
-11 40 -25 40 -60 0 -16 3 -28 6 -28 3 0 44 12 90 26 62 19 84 31 84 43 0 33
25 54 53 47 23 -5 27 -12 27 -40 0 -31 3 -34 37 -41 22 -4 50 -20 70 -40 27
-27 33 -41 33 -74 0 -90 -51 -156 -191 -247 l-96 -62 -62 -193 c-99 -309 -103
-314 -37 -38 25 101 44 185 42 186 -6 7 -78 -55 -96 -82 -11 -17 -20 -24 -20
-18 0 13 71 90 105 114 16 11 31 59 69 217 26 112 46 206 43 209 -10 9 -182
-51 -207 -73 -37 -33 -79 -51 -147 -65 -83 -17 -130 -5 -161 41 -22 32 -23 42
-18 115 3 44 7 127 8 185 3 90 7 113 30 162 53 114 168 195 263 186 30 -3 43
5 108 62 l74 65 6 82 c4 53 13 96 27 122 33 66 104 92 134 49z m-1844 -2 c0
-8 -11 -34 -25 -57 -14 -24 -25 -51 -25 -60 0 -17 -33 -52 -42 -44 -10 10 12
97 32 130 26 42 60 60 60 31z m-320 -381 c0 -3 -21 -15 -47 -26 -59 -25 -84
-48 -136 -124 -22 -32 -42 -54 -45 -47 -5 17 53 106 92 139 46 39 136 77 136
58z m605 -825 c8 -565 3 -697 -35 -935 -85 -529 -258 -957 -533 -1325 -115
-154 -335 -371 -482 -475 -25 -17 -18 -8 20 25 302 267 545 619 675 975 18 50
36 95 40 100 7 9 43 125 86 280 35 127 82 399 98 575 14 151 15 585 3 950
l-14 405 61 59 61 58 6 -78 c4 -44 10 -320 14 -614z m-344 -8 c-12 -38 -21
-72 -21 -76 0 -4 27 12 60 34 33 22 60 36 60 31 0 -6 -30 -30 -68 -54 l-67
-44 -65 -202 c-35 -112 -66 -199 -67 -194 -2 5 15 85 37 177 22 92 40 170 40
172 0 10 -42 -19 -76 -53 -23 -22 -32 -28 -25 -14 7 12 34 38 60 59 45 35 49
42 66 115 15 62 25 83 48 103 16 14 32 23 34 20 2 -2 -5 -35 -16 -74z m-1140
-2 c56 -5 125 -20 168 -35 l73 -27 22 21 c23 21 46 28 46 12 0 -4 -27 -31 -60
-60 -80 -69 -439 -446 -624 -654 -527 -593 -949 -1182 -1250 -1745 -42 -78
-76 -147 -76 -152 0 -27 -19 -5 -30 34 -12 44 -12 46 35 133 178 326 492 788
799 1172 282 352 504 601 848 948 l239 242 -58 18 c-81 25 -324 25 -441 0
-124 -28 -274 -79 -410 -140 -67 -31 -122 -54 -122 -52 0 2 28 23 61 46 118
80 350 175 544 223 116 29 111 28 236 16z m3979 -169 c27 -51 3 -120 -75 -215
l-45 -56 0 -117 c0 -223 -55 -349 -189 -435 -40 -25 -42 -28 -20 -28 34 0 49
-18 49 -57 0 -18 3 -33 8 -33 4 0 40 11 81 24 63 20 76 28 87 55 8 19 20 31
32 31 24 0 46 -25 39 -44 -4 -10 4 -17 26 -22 93 -20 145 -75 132 -142 -16
-86 -69 -147 -205 -233 l-101 -64 -61 -192 c-34 -106 -63 -191 -65 -189 -2 2
14 77 36 167 22 90 38 166 35 168 -2 2 -9 0 -17 -5 -7 -5 -4 -1 7 9 14 13 34
79 71 232 29 118 50 216 48 218 -8 9 -180 -57 -205 -79 -43 -35 -131 -64 -199
-64 -50 0 -64 4 -84 24 -36 36 -48 95 -34 164 6 31 12 104 13 162 2 123 20
172 88 246 56 61 109 87 180 89 55 2 59 4 132 70 l76 67 0 57 c0 81 24 154 61
185 37 31 84 34 99 7z m-3501 -136 c92 -187 76 -433 -44 -680 -105 -215 -296
-466 -421 -554 -46 -32 -44 -29 31 50 131 137 238 293 336 489 77 152 102 251
103 400 0 135 -18 213 -69 291 -22 34 -22 37 -7 53 27 27 38 19 71 -49z
m-1649 -142 c-165 -167 -260 -286 -365 -457 -344 -562 -475 -1259 -328 -1746
14 -47 36 -106 49 -131 l23 -47 -34 -86 c-115 -284 -187 -676 -170 -921 16
-233 37 -320 111 -470 142 -286 359 -408 729 -408 322 -1 676 88 1055 262 151
69 169 67 43 -5 -106 -60 -352 -170 -477 -213 -226 -78 -489 -130 -679 -136
-172 -4 -273 7 -393 46 -113 36 -190 85 -274 175 -104 111 -180 263 -218 429
-24 107 -23 506 2 640 29 159 70 310 121 445 26 69 47 136 48 150 0 14 -15 59
-32 100 -100 231 -118 571 -50 926 102 536 360 1020 735 1385 81 78 247 219
258 219 2 0 -68 -71 -154 -157z m410 95 c0 -2 -13 -43 -29 -93 -28 -85 -42
-101 -22 -25 6 19 15 54 21 78 6 23 15 42 20 42 6 0 10 -1 10 -2z m-1526
-1080 c9 -12 16 -33 16 -45 0 -37 -39 -110 -89 -165 l-46 -51 -6 -156 c-4
-128 -9 -166 -28 -213 -29 -75 -81 -141 -144 -183 -47 -32 -49 -35 -25 -35 31
0 48 -24 48 -65 0 -20 4 -26 15 -21 9 3 47 15 86 27 43 13 72 28 75 38 11 36
22 46 50 46 26 0 29 -3 29 -33 0 -29 3 -34 39 -43 22 -6 55 -26 73 -44 27 -27
33 -41 33 -74 0 -86 -62 -163 -202 -251 l-86 -54 -68 -212 c-38 -117 -70 -211
-72 -210 -1 2 11 61 28 132 17 71 37 155 45 187 7 31 9 57 4 57 -5 0 -29 -19
-54 -43 -25 -24 -45 -40 -45 -36 0 4 27 32 60 62 33 29 60 59 60 65 0 5 20 94
45 195 25 102 45 190 45 195 0 16 -178 -46 -221 -77 -52 -38 -131 -64 -194
-64 -61 0 -90 14 -110 54 -18 34 -22 141 -6 180 5 15 7 60 4 101 -14 187 119
357 281 358 46 0 53 4 122 66 l74 66 0 54 c0 81 18 141 55 180 39 41 85 46
109 12z m5338 5 c41 -37 13 -133 -66 -219 l-46 -52 0 -124 c0 -215 -54 -346
-175 -426 -44 -29 -45 -30 -20 -36 28 -7 47 -43 38 -74 -5 -20 -4 -20 67 4 40
13 78 24 85 24 7 0 22 17 32 38 10 20 25 38 34 40 25 5 50 -26 43 -52 -5 -20
-1 -24 29 -30 19 -3 52 -22 73 -40 34 -30 39 -39 39 -77 -1 -91 -65 -171 -203
-254 l-82 -50 -71 -218 c-40 -120 -73 -216 -75 -215 -1 2 18 86 42 187 24 102
43 189 41 194 -1 5 -24 -11 -51 -34 -27 -24 -43 -34 -36 -24 6 11 31 35 55 53
l43 33 47 197 c25 108 48 203 50 210 3 6 1 12 -3 12 -23 -1 -185 -59 -200 -73
-33 -30 -133 -69 -191 -74 -68 -6 -113 12 -136 57 -18 34 -18 119 -1 175 8 27
9 51 3 75 -36 135 80 336 216 375 32 9 70 14 83 11 21 -6 38 5 103 63 l78 70
2 72 c3 85 22 140 63 174 34 29 64 32 90 8z m1789 -9 c18 -22 14 -85 -10 -131
-11 -22 -39 -61 -64 -89 l-45 -49 -4 -155 c-4 -129 -8 -164 -26 -210 -32 -78
-85 -147 -145 -183 -48 -30 -49 -32 -24 -35 31 -4 51 -34 44 -68 -5 -28 -5
-28 48 -9 22 8 59 19 82 25 35 9 43 16 53 46 11 31 15 35 43 32 28 -3 32 -7
32 -33 0 -27 5 -32 47 -48 166 -64 118 -226 -109 -369 l-82 -52 -61 -191 c-98
-305 -102 -309 -36 -36 24 100 39 181 34 181 -4 0 -29 -19 -55 -42 -25 -24
-40 -33 -32 -21 7 13 33 37 56 55 30 22 46 43 53 67 29 110 90 376 88 382 -5
13 -177 -50 -219 -80 -43 -32 -109 -56 -174 -65 -110 -15 -170 69 -143 198 5
28 11 98 12 156 1 93 4 111 29 162 55 111 150 178 255 178 40 0 50 6 116 65
l73 66 5 83 c3 46 13 96 22 113 32 64 106 94 137 57z m-4881 -158 c0 -9 -149
-101 -205 -126 -102 -46 -115 -44 -20 4 50 24 117 63 150 85 56 37 75 47 75
37z m-583 -299 c-8 -96 -29 -175 -64 -234 -27 -46 -100 -117 -139 -135 l-25
-12 33 -10 c29 -10 33 -16 36 -48 4 -43 3 -43 57 -23 22 8 58 19 80 24 34 9
42 16 50 43 8 28 15 33 40 33 26 0 31 -4 35 -34 4 -29 11 -36 44 -48 49 -17
75 -39 92 -80 11 -26 11 -39 -1 -80 -21 -69 -74 -126 -186 -199 l-97 -62 -41
-131 c-23 -72 -46 -131 -51 -131 -6 0 -10 2 -10 5 0 6 40 177 46 198 9 28 -10
20 -60 -28 -26 -25 -42 -36 -36 -25 6 11 32 37 59 58 l47 37 48 203 c26 112
45 206 42 209 -11 11 -180 -51 -216 -79 -60 -47 -205 -83 -239 -60 -23 16 -4
29 51 35 66 8 118 23 143 41 20 15 20 15 -2 31 -28 20 -30 60 -5 88 15 19 15
20 0 14 -9 -3 -33 -9 -52 -13 -59 -11 -35 21 32 42 138 44 232 173 247 341 7
70 21 113 38 113 6 0 8 -31 4 -83z m1549 74 c-3 -4 -23 -11 -44 -15 -52 -8
-116 -53 -156 -110 -39 -54 -69 -153 -64 -211 l3 -40 20 34 c28 48 160 224
181 242 16 13 16 12 4 -11 -43 -81 -197 -299 -212 -300 -12 0 -21 44 -20 100
2 156 136 314 270 319 13 1 21 -3 18 -8z m478 -604 c22 -87 -39 -177 -184
-269 l-100 -63 -61 -190 c-75 -236 -77 -243 -78 -227 -1 7 17 89 40 183 22 94
39 175 37 181 -2 5 -26 -9 -53 -32 -42 -36 -41 -33 11 16 55 54 61 65 74 124
7 36 18 72 24 81 23 33 67 81 71 77 2 -2 -9 -44 -25 -93 -17 -48 -29 -90 -27
-91 5 -5 138 85 170 115 38 35 74 97 82 144 7 34 4 40 -29 72 -45 42 -39 67 7
32 19 -15 36 -39 41 -60z m-1003 -548 c-78 -64 -348 -210 -523 -283 -203 -83
-436 -148 -636 -177 -52 -7 -147 -10 -255 -6 -201 6 -320 31 -462 96 -85 40
-215 124 -215 140 0 7 27 91 45 140 4 11 15 5 43 -21 264 -251 675 -329 1162
-222 236 52 576 185 765 298 98 59 112 66 76 35z m1781 -96 c69 -20 131 -81
148 -143 14 -54 7 -126 -19 -195 l-19 -50 -67 -3 c-53 -2 -66 0 -62 10 25 67
47 170 38 185 -24 45 -61 67 -119 71 -99 7 -114 -20 -200 -362 l-20 -78 31 6
c18 3 107 9 199 12 199 8 348 -10 531 -62 163 -47 255 -87 345 -151 175 -125
278 -265 323 -441 32 -125 22 -226 -42 -416 -83 -249 -229 -480 -446 -706 -99
-104 -278 -261 -368 -324 -33 -22 -31 -20 10 15 106 91 290 278 364 370 120
148 249 371 305 529 62 172 86 333 66 449 -13 80 -75 215 -112 247 l-23 19 18
-21 c9 -11 17 -29 17 -40 -1 -34 -36 -98 -84 -150 l-46 -52 0 -113 c-1 -228
-61 -372 -186 -445 -42 -25 -59 -42 -30 -31 25 10 56 -22 56 -58 l0 -33 75 24
c90 29 113 31 95 9 -6 -8 -51 -27 -98 -42 -48 -15 -106 -43 -130 -60 -76 -58
-220 -83 -270 -47 -51 35 -66 123 -39 215 10 31 11 53 5 70 -15 37 -1 145 26
204 32 70 100 143 154 166 24 11 67 19 95 19 50 1 55 3 125 68 l73 67 4 78 c3
51 12 91 25 118 23 44 73 81 99 72 25 -9 -38 54 -104 104 -72 54 -250 142
-360 178 -74 24 -304 75 -337 75 -8 0 -19 -15 -25 -32 -16 -49 -100 -309 -193
-598 -45 -140 -104 -322 -130 -405 -129 -398 -550 -1706 -550 -1709 0 -4 -175
-134 -321 -239 l-38 -27 9 27 c4 16 22 87 39 158 42 184 287 1216 321 1360 16
66 49 203 73 305 92 382 127 530 172 715 58 235 95 408 88 415 -15 16 -408
-104 -770 -235 -252 -92 -514 -167 -528 -153 -3 2 7 21 22 41 21 30 33 37 72
42 99 14 273 60 421 113 281 100 643 221 724 243 l81 21 36 142 c91 350 106
390 172 440 62 47 162 54 279 19z m-2315 -315 c-115 -142 -153 -287 -110 -414
34 -100 196 -214 347 -244 l60 -12 -25 -19 c-13 -10 -42 -31 -64 -47 l-40 -29
-91 27 c-210 61 -334 189 -334 346 0 91 63 229 146 321 28 30 131 113 141 113
2 0 -11 -19 -30 -42z m491 -10 c44 -22 66 -62 70 -132 6 -85 -17 -160 -81
-268 -48 -82 -54 -88 -84 -88 -18 0 -33 2 -33 5 0 3 13 32 29 63 62 123 61
254 -3 310 -43 37 -103 47 -173 29 -56 -15 -64 -13 -35 10 104 84 226 111 310
71z m-2640 -681 c38 -45 8 -139 -71 -224 l-45 -48 -4 -155 c-4 -130 -8 -164
-27 -213 -29 -73 -90 -150 -149 -188 -34 -22 -41 -29 -25 -29 32 0 55 -29 51
-62 -5 -34 -5 -34 97 0 65 22 80 31 85 51 13 56 75 52 75 -5 1 -25 6 -30 38
-37 21 -5 53 -24 72 -42 44 -41 47 -88 9 -163 -30 -61 -76 -103 -185 -169 -66
-40 -81 -54 -89 -83 -20 -70 -129 -395 -129 -385 -1 6 19 92 43 193 23 100 40
182 36 182 -4 0 -29 -18 -56 -41 -40 -33 -38 -31 10 15 l58 55 49 202 c27 111
49 205 49 210 0 12 -182 -52 -205 -72 -45 -40 -138 -73 -207 -73 -60 -1 -71 2
-93 25 -36 36 -48 97 -34 168 6 31 12 103 12 161 2 121 21 172 91 248 54 59
108 85 178 87 56 2 59 4 133 69 l75 68 0 60 c0 80 17 133 56 174 33 36 82 46
102 21z m1788 -11 c22 -34 15 -70 -14 -74 -19 -3 -23 0 -18 15 3 10 2 24 -3
31 -12 20 -45 -3 -68 -47 -21 -40 -53 -54 -53 -24 0 10 11 36 24 57 40 66 102
86 132 42z m1778 8 c41 -40 2 -157 -78 -233 l-36 -35 0 -125 c0 -78 -6 -151
-16 -191 -24 -103 -83 -191 -161 -241 -42 -26 -43 -27 -18 -33 29 -7 49 -40
42 -68 -6 -23 -4 -22 96 8 56 17 81 14 60 -7 -6 -6 -48 -22 -94 -37 -46 -15
-100 -39 -119 -54 -44 -33 -146 -68 -200 -68 -59 0 -95 22 -114 70 -20 50 -20
93 -1 156 11 37 12 58 4 87 -22 83 18 210 92 291 57 63 139 101 199 93 32 -4
42 3 113 66 l77 69 0 62 c0 84 16 134 55 173 36 36 74 43 99 17z m3566 -9 c18
-22 14 -88 -9 -132 -10 -22 -40 -61 -64 -89 l-45 -50 -4 -149 c-3 -122 -8
-161 -25 -208 -30 -79 -79 -145 -143 -189 -38 -27 -48 -38 -33 -38 29 0 56
-34 51 -65 -3 -14 -3 -25 -1 -25 3 0 43 12 89 26 77 24 84 29 94 60 9 25 17
34 33 34 35 0 49 -15 45 -46 -3 -25 1 -29 35 -37 21 -5 53 -24 72 -42 28 -26
35 -40 35 -71 -1 -88 -63 -166 -203 -254 l-87 -55 -67 -207 c-37 -114 -68
-206 -70 -204 -4 3 70 321 82 354 8 22 -12 13 -60 -30 -27 -24 -42 -33 -34
-20 8 12 33 36 56 54 30 22 46 43 52 67 51 205 90 376 85 380 -9 9 -178 -51
-209 -74 -46 -34 -84 -51 -147 -65 -142 -32 -214 54 -174 209 12 46 13 73 7
103 -20 87 23 217 95 291 53 55 108 80 176 82 55 2 59 4 132 70 l76 67 0 62
c0 84 16 134 55 173 36 36 83 44 105 18z m-5376 -821 c10 -4 16 -18 16 -40 0
-24 5 -34 15 -34 27 0 94 -39 111 -65 34 -51 13 -133 -51 -204 -21 -23 -79
-68 -131 -102 l-93 -61 -56 -177 c-31 -97 -61 -191 -67 -209 -5 -18 -12 -31
-14 -29 -4 3 65 304 82 360 5 16 3 17 -15 7 -12 -6 -37 -27 -57 -47 -22 -22
-32 -27 -25 -15 6 12 31 36 56 54 24 18 46 38 48 43 12 29 98 407 94 411 -10
11 -182 -50 -207 -72 -47 -43 -119 -67 -198 -68 -71 -1 -75 0 -103 32 -26 29
-29 40 -29 97 0 58 2 65 20 65 18 0 20 -7 20 -55 0 -47 4 -60 26 -82 23 -23
31 -25 79 -20 29 3 75 15 102 27 48 22 48 22 26 37 -28 19 -31 68 -5 96 16 20
16 20 -3 12 -11 -4 -49 -9 -85 -11 -57 -3 -60 -2 -25 6 22 5 73 11 114 14 85
7 111 -6 111 -56 0 -19 5 -28 13 -26 160 43 155 40 170 80 15 37 29 44 61 32z
m3512 -41 c-8 -15 -15 -22 -16 -15 0 17 20 55 27 49 2 -3 -2 -18 -11 -34z
m-1916 -496 c0 -2 -24 -23 -52 -47 l-53 -42 47 46 c42 41 58 53 58 43z m1728
-300 c-16 -54 -31 -97 -33 -95 -6 6 37 173 47 186 20 23 17 7 -14 -91z m-456
-147 c-13 -11 -81 -54 -150 -97 -70 -42 -230 -142 -356 -222 -126 -80 -243
-154 -260 -165 -31 -18 -31 -18 -7 1 53 44 773 501 791 502 3 0 -5 -8 -18 -19z
m-1071 -747 c-42 -135 -94 -293 -187 -576 -51 -158 -94 -294 -94 -303 0 -9
-11 -43 -24 -77 -26 -69 -38 -106 -437 -1344 -156 -485 -285 -881 -286 -879
-1 1 46 209 106 462 212 893 360 1519 365 1544 9 44 47 203 62 255 8 28 21 86
29 130 8 44 22 103 30 130 17 57 111 448 117 483 2 16 48 54 168 136 91 63
166 113 168 111 2 -2 -6 -34 -17 -72z m-1759 -90 c24 -21 24 -83 -1 -131 -11
-21 -40 -61 -65 -89 l-46 -51 0 -115 c0 -137 -11 -202 -49 -282 -34 -74 -73
-120 -129 -156 l-43 -27 31 -10 c27 -10 30 -16 30 -50 l0 -40 85 27 c76 24 87
30 103 61 9 19 24 36 33 38 24 4 47 -23 42 -51 -4 -20 1 -25 36 -35 86 -26
123 -84 101 -159 -22 -72 -73 -127 -184 -200 -75 -49 -107 -75 -111 -93 -12
-48 -127 -401 -130 -398 -2 2 17 86 41 188 24 102 43 188 41 192 -1 4 -24 -11
-51 -34 -27 -23 -43 -33 -36 -22 6 10 31 34 55 52 l43 33 42 177 c23 97 45
192 50 210 5 17 5 32 2 32 -30 -1 -184 -61 -213 -83 -72 -55 -198 -82 -263
-57 -59 22 -83 125 -52 225 8 28 9 52 2 83 -11 51 5 144 36 205 30 59 98 128
148 150 25 11 66 20 96 20 50 0 54 2 127 71 l76 71 0 66 c-1 92 33 168 86 190
31 12 47 10 67 -8z m3566 -5 c7 -7 12 -33 12 -59 0 -38 -8 -58 -39 -105 -22
-33 -51 -70 -65 -83 -25 -24 -26 -28 -26 -151 0 -183 -28 -275 -112 -366 -22
-24 -56 -54 -76 -66 l-36 -22 31 -8 c33 -9 49 -41 36 -74 -5 -14 -3 -16 13
-10 10 4 52 17 92 29 65 19 73 24 80 52 7 26 13 30 43 30 32 0 34 -2 33 -32
-2 -30 1 -34 37 -43 90 -25 126 -92 94 -177 -25 -66 -76 -117 -185 -188 l-95
-62 -65 -206 c-35 -113 -66 -204 -68 -202 -2 2 12 70 31 152 54 228 53 217 28
204 -11 -6 -37 -28 -58 -49 -35 -36 -36 -36 -14 -5 12 18 39 45 61 60 l39 28
50 209 c28 115 50 211 48 213 -9 8 -195 -63 -218 -83 -34 -32 -131 -65 -195
-67 -113 -2 -157 81 -119 225 10 41 11 65 4 92 -12 45 4 142 33 200 55 110
147 176 243 176 50 0 55 3 128 68 l77 67 0 68 c0 76 18 128 57 170 29 29 79
37 101 15z m-2308 -142 c-8 -7 -62 -53 -120 -100 -121 -100 -279 -268 -386
-409 -115 -152 -169 -279 -204 -477 l-9 -55 4 70 c12 180 78 333 231 535 84
111 171 197 309 307 55 43 118 93 140 111 41 32 61 43 35 18z m510 -691 c7 -8
10 -25 8 -38 -4 -21 1 -25 38 -35 61 -16 104 -63 104 -113 0 -88 -58 -162
-197 -251 l-92 -59 -59 -187 c-33 -103 -63 -197 -67 -210 -4 -13 -9 -22 -11
-19 -4 3 65 306 82 360 5 16 3 17 -13 9 -10 -6 -35 -27 -57 -49 -25 -25 -35
-30 -27 -16 6 13 32 37 56 55 30 23 48 44 54 68 16 57 91 372 91 381 0 5 -12
6 -26 3 -24 -6 -25 -5 -15 15 7 11 20 21 30 21 12 0 23 14 34 40 16 43 44 53
67 25z"/>
<path d="M5731 12194 c-26 -34 -44 -91 -39 -129 l3 -30 38 53 c43 58 62 132
34 132 -9 0 -25 -12 -36 -26z"/>
<path d="M5589 11879 c-55 -48 -56 -50 -52 -92 6 -48 -8 -81 -52 -132 -22 -25
-21 -22 5 18 33 50 50 120 32 131 -11 7 -119 -104 -180 -186 -51 -67 -112
-168 -112 -185 0 -24 60 -46 112 -40 117 14 210 82 265 194 35 71 38 84 41
182 2 58 2 118 0 133 l-3 26 -56 -49z"/>
<path d="M5394 11836 c-22 -7 -55 -23 -72 -36 -70 -52 -132 -180 -132 -272 0
-49 14 -48 39 1 30 57 131 188 195 250 72 71 63 86 -30 57z"/>
<path d="M5205 11379 c-11 -34 -8 -114 4 -137 25 -47 97 -51 194 -10 51 22 58
33 28 43 -32 10 -36 43 -11 78 l23 30 -24 -7 c-63 -18 -134 -18 -171 2 -36 19
-38 19 -43 1z"/>
<path d="M5747 11393 c-4 -3 -7 -15 -7 -25 0 -22 26 -24 34 -2 10 25 -10 45
-27 27z"/>
<path d="M5457 11342 c-21 -23 -22 -38 -1 -46 22 -9 46 13 42 37 -4 28 -21 31
-41 9z"/>
<path d="M5720 11311 c0 -11 26 -22 34 -14 12 12 5 23 -14 23 -11 0 -20 -4
-20 -9z"/>
<path d="M9295 12194 c-21 -23 -45 -98 -45 -141 0 -27 47 24 76 82 36 75 17
111 -31 59z"/>
<path d="M9147 11873 c-52 -47 -53 -49 -49 -95 5 -52 -15 -94 -65 -138 l-28
-25 26 30 c15 17 34 44 43 62 17 35 22 103 7 103 -26 0 -224 -248 -268 -334
-22 -44 -23 -50 -9 -64 25 -26 113 -27 178 -2 110 41 192 141 223 271 17 72
20 239 5 239 -5 0 -34 -21 -63 -47z"/>
<path d="M8925 11821 c-49 -22 -111 -89 -136 -146 -24 -55 -41 -140 -33 -170
5 -20 15 -10 74 78 38 56 101 137 140 180 l72 77 -39 0 c-21 0 -56 -9 -78 -19z"/>
<path d="M9311 11382 c-15 -27 -14 -32 4 -32 20 0 31 28 17 42 -7 7 -14 4 -21
-10z"/>
<path d="M8766 11368 c-3 -13 -6 -45 -6 -71 0 -38 5 -53 26 -74 23 -23 31 -25
79 -20 29 3 75 15 101 26 l47 21 -21 23 c-27 28 -28 63 -4 90 16 20 16 20 -3
12 -42 -17 -141 -18 -173 -1 -39 20 -39 20 -46 -6z"/>
<path d="M9012 11338 c-18 -18 -15 -36 9 -43 24 -8 36 1 41 30 4 24 -30 33
-50 13z"/>
<path d="M9290 11304 c0 -17 22 -14 28 4 2 7 -3 12 -12 12 -9 0 -16 -7 -16
-16z"/>
<path d="M9283 11133 c-33 -104 -59 -190 -57 -191 6 -8 153 100 188 138 67 75
85 149 43 188 -21 20 -86 52 -105 52 -5 0 -36 -84 -69 -187z"/>
<path d="M10237 10818 c-24 -19 -47 -81 -47 -129 0 -35 2 -40 14 -29 31 25 76
108 76 138 0 34 -15 41 -43 20z"/>
<path d="M10090 10495 c-30 -27 -56 -54 -58 -62 -2 -7 -7 -11 -12 -8 -9 6
-120 -114 -187 -203 -40 -52 -113 -172 -113 -184 0 -12 70 -38 104 -38 46 0
133 33 184 70 105 76 169 265 145 424 l-8 50 -55 -49z m-53 -122 c-3 -10 -5
-4 -5 12 0 17 2 24 5 18 2 -7 2 -21 0 -30z"/>
<path d="M9865 10436 c-105 -50 -180 -178 -173 -298 l3 -53 20 34 c38 65 163
226 214 276 28 27 51 53 51 57 0 16 -67 7 -115 -16z"/>
<path d="M9705 9999 c-4 -6 -9 -37 -12 -69 -5 -56 -4 -60 26 -91 30 -29 36
-31 81 -26 42 5 150 43 150 53 0 2 -11 14 -25 28 -31 31 -31 37 3 77 22 27 23
32 8 26 -76 -29 -157 -30 -203 -1 -15 9 -24 10 -28 3z"/>
<path d="M10227 9994 c-14 -15 -6 -34 14 -34 14 0 19 5 17 17 -3 18 -20 27
-31 17z"/>
<path d="M9945 9948 c-14 -21 -14 -24 2 -35 33 -25 53 -10 53 38 0 27 -35 25
-55 -3z"/>
<path d="M10210 9925 c-10 -13 -11 -18 -1 -28 10 -9 15 -8 26 7 23 31 -1 50
-25 21z"/>
<path d="M10266 9931 c-11 -18 -126 -384 -122 -388 8 -8 182 115 211 149 35
41 65 105 65 138 0 29 -25 62 -60 80 -32 17 -89 30 -94 21z"/>
<path d="M3968 9553 c-25 -29 -36 -55 -43 -105 -10 -63 5 -62 50 4 22 34 35
65 35 85 0 37 -18 43 -42 16z"/>
<path d="M3820 9230 c-52 -47 -54 -50 -51 -95 3 -47 -27 -114 -64 -145 -9 -7
0 11 20 40 25 37 35 63 35 91 0 21 -4 39 -8 39 -13 0 -120 -115 -174 -186 -56
-73 -118 -174 -118 -192 0 -22 70 -45 119 -38 141 19 265 140 295 286 12 55
17 205 9 227 -7 19 -12 17 -63 -27z"/>
<path d="M3620 9184 c-60 -21 -126 -86 -161 -158 -29 -62 -48 -161 -33 -176 6
-6 35 29 71 84 35 52 96 130 138 174 41 44 75 83 75 86 0 11 -43 6 -90 -10z"/>
<path d="M3436 8726 c-13 -48 -6 -124 13 -147 16 -20 28 -24 73 -23 44 1 158
37 158 50 0 2 -11 14 -25 28 -26 26 -25 45 4 80 15 18 15 19 -9 12 -65 -18
-135 -18 -172 2 -36 19 -36 19 -42 -2z"/>
<path d="M3976 8734 c-9 -24 -7 -34 8 -34 13 0 26 20 26 41 0 15 -27 10 -34
-7z"/>
<path d="M3684 8689 c-18 -20 -18 -21 1 -35 26 -20 34 -18 41 10 11 46 -11 59
-42 25z"/>
<path d="M3970 8670 c-12 -7 -12 -12 -3 -21 10 -10 14 -9 19 5 8 22 2 27 -16
16z"/>
<path d="M3951 8483 c-33 -103 -59 -189 -57 -190 1 -2 40 23 86 55 173 118
218 247 106 302 -23 11 -50 20 -58 20 -12 0 -32 -47 -77 -187z"/>
<path d="M9321 9553 c-30 -21 -51 -72 -51 -125 l1 -43 25 30 c70 84 88 183 25
138z"/>
<path d="M9162 9222 c-49 -44 -52 -49 -46 -83 7 -42 -11 -88 -56 -140 -28 -32
-28 -31 4 18 38 59 52 104 38 128 -17 31 -213 -200 -278 -327 l-24 -47 25 -17
c74 -49 248 14 324 118 55 75 73 139 79 276 2 67 0 122 -4 122 -5 0 -33 -22
-62 -48z"/>
<path d="M8944 9171 c-94 -43 -163 -154 -172 -274 -2 -40 -2 -70 1 -67 3 3 33
47 67 98 34 50 98 130 142 177 l80 85 -38 0 c-22 0 -57 -9 -80 -19z"/>
<path d="M8774 8695 c-9 -64 2 -112 32 -131 32 -21 113 -14 180 15 l47 21 -27
21 c-29 23 -34 60 -11 79 24 20 18 30 -11 20 -37 -15 -135 -11 -164 5 -36 21
-38 19 -46 -30z"/>
<path d="M9317 8720 c-4 -15 0 -20 14 -20 12 0 19 7 19 20 0 11 -6 20 -14 20
-7 0 -16 -9 -19 -20z"/>
<path d="M9030 8685 c-15 -18 -6 -45 13 -45 20 0 40 27 33 45 -7 19 -30 19
-46 0z"/>
<path d="M9300 8655 c0 -8 7 -15 15 -15 8 0 15 7 15 15 0 8 -7 15 -15 15 -8 0
-15 -7 -15 -15z"/>
<path d="M9355 8657 c-24 -65 -115 -360 -113 -363 9 -8 168 108 196 144 51 64
67 136 39 173 -25 33 -115 67 -122 46z"/>
<path d="M11091 9534 c-25 -31 -43 -95 -39 -132 3 -26 5 -24 41 26 43 58 62
132 34 132 -9 0 -25 -12 -36 -26z"/>
<path d="M10949 9219 c-55 -48 -56 -50 -52 -92 5 -46 -8 -80 -48 -127 l-21
-25 16 25 c40 61 62 150 37 150 -12 0 -130 -126 -179 -192 -52 -68 -112 -168
-112 -185 0 -16 58 -43 93 -43 41 0 121 29 170 61 106 70 157 187 158 361 1
60 0 111 -2 113 -2 2 -29 -19 -60 -46z"/>
<path d="M10754 9176 c-84 -26 -158 -111 -188 -215 -17 -57 -21 -131 -8 -131
4 0 22 25 40 55 37 61 125 173 196 249 25 27 46 51 46 53 0 7 -47 1 -86 -11z"/>
<path d="M10564 8707 c-17 -81 -1 -141 43 -158 37 -14 165 15 201 46 2 2 -8
15 -23 29 -25 25 -25 27 -10 62 14 34 14 36 -3 29 -9 -4 -42 -9 -72 -12 -42
-3 -64 0 -92 15 l-37 19 -7 -30z"/>
<path d="M11106 8724 c-9 -24 -7 -34 8 -34 16 0 29 27 20 41 -8 14 -21 11 -28
-7z"/>
<path d="M10815 8680 c-17 -19 -17 -22 -2 -37 13 -14 19 -14 32 -3 17 14 17
51 -1 57 -6 2 -19 -6 -29 -17z"/>
<path d="M11093 8663 c-20 -7 -15 -23 7 -23 11 0 20 4 20 9 0 13 -12 19 -27
14z"/>
<path d="M11081 8474 c-33 -103 -59 -189 -58 -190 2 -2 40 22 85 53 127 86
195 192 161 252 -19 32 -57 59 -96 67 l-32 6 -60 -188z"/>
<path d="M5761 8732 c-15 -27 -14 -32 4 -32 20 0 31 28 17 42 -7 7 -14 4 -21
-10z"/>
<path d="M5460 8685 c-10 -12 -10 -18 0 -30 7 -8 18 -15 26 -15 16 0 37 37 29
50 -9 15 -41 12 -55 -5z"/>
<path d="M5742 8659 c2 -6 8 -10 13 -10 5 0 11 4 13 10 2 6 -4 11 -13 11 -9 0
-15 -5 -13 -11z"/>
<path d="M5733 8480 c-33 -104 -59 -190 -56 -190 2 0 36 22 76 49 189 127 232
262 101 317 -18 8 -39 14 -47 14 -8 0 -35 -68 -74 -190z"/>
<path d="M8185 7311 c-14 -6 -24 -28 -37 -77 -15 -61 -15 -72 -2 -91 35 -55
140 -75 190 -37 26 19 51 80 78 190 l6 24 -107 -1 c-60 0 -117 -4 -128 -8z"/>
<path d="M9311 6884 c-18 -23 -24 -43 -35 -121 -4 -32 7 -29 36 10 34 44 58
92 58 117 0 29 -34 26 -59 -6z"/>
<path d="M9172 6571 c-51 -45 -53 -49 -47 -83 8 -42 -10 -87 -56 -139 l-30
-34 30 43 c39 56 54 103 43 131 -8 22 -13 18 -82 -56 -80 -85 -158 -192 -196
-265 l-24 -47 26 -18 c62 -40 199 -4 283 75 55 52 95 128 111 212 12 61 14
230 3 230 -5 -1 -32 -22 -61 -49z"/>
<path d="M8963 6523 c-57 -20 -135 -106 -162 -179 -19 -50 -31 -148 -19 -159
2 -3 32 37 65 88 34 50 95 129 137 174 42 44 76 84 76 87 0 11 -54 5 -97 -11z"/>
<path d="M8786 6059 c-12 -60 -7 -106 16 -134 20 -25 25 -27 82 -23 34 2 84
14 111 27 l50 22 -27 15 c-33 17 -38 57 -11 87 17 18 17 19 -22 10 -61 -12
-131 -8 -159 10 -33 22 -32 22 -40 -14z"/>
<path d="M9036 6031 c-10 -11 -15 -25 -11 -30 11 -18 44 -12 55 9 21 39 -13
55 -44 21z"/>
<path d="M3975 6896 c-25 -25 -45 -82 -45 -130 0 -24 2 -27 15 -16 32 27 75
104 75 137 0 39 -12 42 -45 9z"/>
<path d="M3829 6576 c-54 -49 -56 -53 -52 -93 6 -47 -24 -110 -68 -148 l-24
-20 21 25 c41 47 64 95 64 133 0 20 -4 37 -9 37 -27 0 -221 -239 -271 -332
-23 -44 -24 -49 -8 -64 43 -43 175 -20 266 46 105 75 167 257 144 416 l-7 52
-56 -52z"/>
<path d="M3657 6538 c-82 -17 -150 -77 -191 -169 -27 -59 -47 -185 -29 -178 6
2 38 45 72 96 34 51 95 128 136 171 78 83 80 95 12 80z"/>
<path d="M3986 6084 c-9 -24 -7 -34 8 -34 16 0 29 27 20 41 -8 14 -21 11 -28
-7z"/>
<path d="M3444 6063 c-20 -78 3 -147 52 -159 29 -7 103 7 160 31 l37 15 -27
25 c-32 29 -33 44 -4 81 21 26 21 27 3 20 -44 -18 -140 -19 -173 -2 -40 21
-40 21 -48 -11z"/>
<path d="M3692 6038 c-18 -18 -14 -36 9 -43 23 -8 39 7 39 38 0 20 -30 23 -48
5z"/>
<path d="M3965 6011 c-3 -5 -1 -12 5 -16 12 -7 30 2 30 16 0 12 -27 12 -35 0z"/>
<path d="M3961 5834 c-33 -104 -59 -190 -57 -191 6 -7 166 109 191 139 33 39
64 104 65 134 0 27 -36 73 -67 85 -74 28 -65 40 -132 -167z"/>
<path d="M7553 6905 c-28 -19 -55 -93 -51 -136 l3 -34 37 50 c57 76 64 157 11
120z"/>
<path d="M7398 6576 c-55 -48 -57 -53 -52 -88 7 -41 -21 -112 -57 -144 -15
-13 -11 -4 10 28 35 52 48 98 34 123 -8 14 -20 5 -74 -52 -80 -85 -160 -191
-199 -265 l-31 -57 30 -16 c52 -26 120 -19 199 21 146 72 207 197 200 405 l-3
97 -57 -52z"/>
<path d="M7182 6525 c-106 -46 -190 -191 -180 -310 l3 -40 34 55 c49 80 116
166 190 243 l64 67 -39 0 c-21 -1 -54 -7 -72 -15z"/>
<path d="M7017 6082 c-3 -4 -8 -28 -12 -53 -9 -60 13 -116 50 -125 37 -9 109
2 163 27 l47 20 -27 20 c-34 25 -35 47 -6 85 21 26 21 27 3 19 -41 -17 -150
-18 -183 -1 -17 9 -33 13 -35 8z"/>
<path d="M7260 6035 c-16 -19 -6 -45 19 -45 19 0 31 18 31 46 0 19 -34 18 -50
-1z"/>
<path d="M11106 6891 c-24 -26 -45 -88 -45 -131 l0 -35 25 30 c14 17 34 47 45
67 35 68 17 116 -25 69z"/>
<path d="M10958 6567 c-51 -47 -56 -55 -51 -84 6 -37 -11 -96 -34 -114 -11
-10 -9 -2 6 26 22 41 28 90 12 99 -22 14 -225 -232 -274 -332 -19 -39 -20 -43
-5 -58 27 -27 105 -29 171 -4 113 43 194 135 227 259 10 39 17 248 8 256 -2 2
-29 -20 -60 -48z m-98 -221 c0 -2 -8 -10 -17 -17 -16 -13 -17 -12 -4 4 13 16
21 21 21 13z"/>
<path d="M10740 6517 c-81 -43 -137 -113 -164 -206 -18 -62 -21 -127 -6 -136
6 -3 10 -1 10 5 0 31 134 209 239 318 l31 32 -42 0 c-24 0 -54 -6 -68 -13z"/>
<path d="M11116 6074 c-9 -24 -7 -34 8 -34 16 0 29 27 20 41 -8 14 -21 11 -28
-7z"/>
<path d="M10575 6070 c-3 -5 -6 -37 -7 -71 -2 -56 1 -64 26 -85 38 -34 87 -30
200 15 l28 11 -26 25 c-32 29 -33 44 -4 80 l22 28 -24 -7 c-56 -17 -136 -18
-168 -2 -36 19 -39 19 -47 6z"/>
<path d="M10832 6034 c-28 -19 -28 -41 -1 -49 23 -8 39 7 39 37 0 25 -14 29
-38 12z"/>
<path d="M11093 5998 c2 -7 10 -13 17 -13 7 0 15 6 18 13 2 7 -5 12 -18 12
-13 0 -20 -5 -17 -12z"/>
<path d="M11091 5824 c-33 -103 -59 -189 -58 -191 2 -1 40 22 84 52 126 84
192 188 161 252 -14 29 -56 57 -100 68 l-27 7 -60 -188z"/>
<path d="M5771 6082 c-15 -27 -14 -32 4 -32 20 0 31 28 17 42 -7 7 -14 4 -21
-10z"/>
<path d="M5472 6038 c-18 -18 -15 -36 9 -43 24 -8 36 1 41 30 4 24 -30 33 -50
13z"/>
<path d="M5750 6004 c0 -9 5 -14 12 -12 18 6 21 28 4 28 -9 0 -16 -7 -16 -16z"/>
<path d="M5743 5833 c-33 -104 -59 -190 -57 -191 1 -2 36 19 77 46 143 97 207
205 161 271 -15 21 -85 60 -110 61 -6 0 -38 -84 -71 -187z"/>
<path d="M5781 4253 c-30 -21 -51 -72 -51 -125 l1 -43 25 30 c70 84 88 183 25
138z"/>
<path d="M5622 3922 c-49 -44 -52 -49 -46 -83 7 -42 -11 -88 -56 -140 -28 -32
-28 -31 4 18 38 59 52 104 38 128 -17 31 -213 -200 -278 -327 l-24 -47 24 -16
c62 -41 202 -5 284 73 86 81 122 183 122 344 0 54 -3 98 -7 98 -5 0 -32 -22
-61 -48z"/>
<path d="M5415 3875 c-24 -8 -60 -35 -92 -69 -64 -68 -95 -145 -91 -224 l3
-54 61 93 c34 52 96 131 138 176 42 44 76 84 76 87 0 11 -54 6 -95 -9z"/>
<path d="M5236 3409 c-12 -60 -7 -106 16 -134 20 -26 25 -27 83 -23 34 3 83
15 109 27 l49 21 -27 21 c-29 23 -34 60 -11 79 28 23 15 27 -37 13 -42 -11
-63 -11 -101 -2 -26 6 -50 15 -53 20 -10 17 -22 9 -28 -22z"/>
<path d="M5777 3420 c-4 -15 0 -20 14 -20 12 0 19 7 19 20 0 11 -6 20 -14 20
-7 0 -16 -9 -19 -20z"/>
<path d="M5484 3379 c-16 -17 -16 -22 -4 -29 23 -15 38 -12 50 10 21 40 -14
55 -46 19z"/>
<path d="M5760 3355 c0 -8 7 -15 15 -15 8 0 15 7 15 15 0 8 -7 15 -15 15 -8 0
-15 -7 -15 -15z"/>
<path d="M5816 3362 c-10 -19 -117 -365 -113 -368 6 -7 135 82 175 119 68 65
93 165 50 204 -13 11 -29 23 -36 27 -23 13 -72 25 -76 18z"/>
<path d="M9332 4238 c-27 -30 -42 -70 -42 -115 0 -32 2 -34 17 -22 30 25 73
102 73 131 0 34 -19 36 -48 6z"/>
<path d="M9188 3921 c-48 -44 -57 -57 -52 -77 10 -39 -4 -88 -36 -124 l-30
-35 24 39 c31 46 43 103 27 119 -9 9 -27 -4 -74 -57 -78 -87 -164 -200 -200
-265 l-28 -50 28 -18 c70 -46 217 -1 303 94 68 74 92 142 98 273 7 165 8 163
-60 101z"/>
<path d="M9000 3881 c-78 -24 -137 -80 -178 -169 -25 -55 -43 -182 -26 -182 5
0 18 17 29 37 29 54 94 140 175 232 38 44 70 82 70 85 0 8 -39 6 -70 -3z"/>
<path d="M8799 3397 c-14 -52 -6 -105 20 -131 26 -26 98 -24 174 4 60 23 70
35 37 45 -28 9 -36 50 -15 82 17 25 17 26 -1 19 -11 -4 -44 -10 -74 -13 -42
-3 -64 0 -92 15 l-38 20 -11 -41z"/>
<path d="M9347 3434 c-13 -13 -7 -44 8 -44 8 0 15 7 15 15 0 8 0 18 1 22 1 10
-16 15 -24 7z"/>
<path d="M9058 3389 c-24 -14 -23 -45 2 -52 23 -6 43 15 38 39 -4 22 -18 26
-40 13z"/>
<path d="M9325 3359 c-10 -15 1 -23 20 -15 9 3 13 10 10 16 -8 13 -22 13 -30
-1z"/>
<path d="M9377 3353 c-6 -10 -117 -359 -117 -367 0 -11 145 90 179 124 35 36
65 89 75 136 5 23 1 37 -15 58 -31 40 -109 71 -122 49z"/>
<path d="M7566 3424 c-4 -9 -4 -19 -2 -22 10 -9 36 8 36 23 0 20 -26 19 -34
-1z"/>
<path d="M7545 3361 c-3 -5 -1 -12 5 -16 12 -7 30 2 30 16 0 12 -27 12 -35 0z"/>
<path d="M7545 3186 c-32 -99 -60 -187 -63 -195 -9 -24 141 84 190 137 98 104
83 205 -34 231 l-35 8 -58 -181z"/>
<path d="M7075 14310 c-22 -3 -45 -9 -51 -13 -25 -15 -46 -167 -24 -167 6 0
10 4 10 10 0 5 25 46 56 91 30 45 54 82 52 83 -2 1 -21 -1 -43 -4z"/>
<path d="M7003 14023 c-4 -10 -7 -41 -8 -70 0 -67 24 -96 83 -95 45 1 106 16
140 36 l24 13 -26 17 c-30 19 -33 42 -10 75 l17 23 -34 -8 c-52 -14 -125 -9
-154 10 -24 16 -26 16 -32 -1z"/>
<path d="M7527 14033 c-4 -3 -7 -12 -7 -20 0 -17 26 -17 33 1 8 21 -11 35 -26
19z"/>
<path d="M7248 13989 c-23 -13 -23 -35 -1 -43 11 -5 22 -1 30 11 23 30 3 51
-29 32z"/>
<path d="M7507 13964 c-8 -8 1 -24 13 -24 4 0 10 7 14 15 5 15 -14 21 -27 9z"/>
<path d="M7555 13957 c-26 -73 -113 -352 -111 -354 5 -5 137 89 170 122 85 85
96 178 25 216 -40 21 -80 29 -84 16z"/>
<path d="M5800 13842 l-75 -47 -31 -93 c-18 -50 -30 -92 -27 -92 15 0 156 106
177 133 47 61 72 148 44 146 -7 0 -47 -21 -88 -47z"/>
<path d="M9236 13674 c-15 -47 -26 -87 -24 -89 5 -6 130 78 146 98 11 13 7 20
-32 46 -24 17 -48 31 -53 31 -5 0 -21 -39 -37 -86z"/>
<path d="M10903 11842 c-19 -14 -22 -23 -17 -54 7 -43 -21 -111 -62 -149 -20
-18 -18 -13 9 24 64 84 61 173 -4 111 -54 -51 -193 -230 -227 -293 l-33 -60
28 -18 c61 -40 195 -6 281 72 53 48 87 107 107 187 17 65 17 65 -8 114 -14 27
-31 57 -39 66 -12 16 -14 16 -35 0z"/>
<path d="M10738 11828 c-72 -19 -148 -104 -181 -202 -17 -50 -23 -146 -9 -146
4 0 23 28 42 61 34 59 165 224 208 263 41 36 18 45 -60 24z"/>
<path d="M11020 11643 c0 -60 -90 -184 -169 -235 -41 -26 -43 -28 -19 -28 33
0 60 -35 52 -67 -4 -13 -5 -23 -3 -23 2 0 37 11 77 25 41 14 80 25 87 25 7 0
16 14 20 30 7 32 31 50 55 42 22 -7 30 -24 24 -48 -4 -16 0 -23 17 -27 13 -4
25 -5 27 -3 6 6 -151 326 -160 326 -4 0 -8 -8 -8 -17z"/>
<path d="M3967 11393 c-4 -3 -7 -12 -7 -20 0 -17 26 -17 33 1 8 21 -11 35 -26
19z"/>
<path d="M10552 11373 c-4 -10 -7 -43 -7 -74 0 -84 20 -103 105 -97 40 3 82
14 110 28 43 22 44 23 22 33 -31 14 -38 51 -17 83 l17 26 -34 -9 c-53 -13
-134 -8 -162 11 -25 16 -27 16 -34 -1z"/>
<path d="M11097 11383 c-4 -3 -7 -12 -7 -20 0 -17 26 -17 33 1 8 21 -11 35
-26 19z"/>
<path d="M10802 11338 c-18 -18 -14 -45 8 -51 14 -3 24 1 31 15 20 37 -10 65
-39 36z"/>
<path d="M3940 11310 c0 -5 6 -10 14 -10 8 0 18 5 21 10 3 6 -3 10 -14 10 -12
0 -21 -4 -21 -10z"/>
<path d="M3993 11303 c-21 -55 -112 -348 -108 -351 2 -2 37 19 77 46 115 78
168 148 168 225 0 36 -15 54 -67 81 -41 20 -62 20 -70 -1z"/>
<path d="M11075 11309 c-4 -6 -4 -13 -1 -16 8 -8 36 5 36 17 0 13 -27 13 -35
-1z"/>
<path d="M11127 11303 c-7 -12 -117 -353 -117 -363 0 -13 126 75 176 123 23
21 49 56 58 76 16 35 16 38 -9 94 -17 40 -33 60 -51 67 -30 12 -51 13 -57 3z"/>
<path d="M3986 4239 c-14 -17 -28 -40 -30 -52 -11 -52 -14 -97 -8 -97 4 0 22
20 40 45 67 88 65 184 -2 104z"/>
<path d="M11117 4233 c-24 -26 -46 -91 -47 -137 0 -18 2 -18 25 4 32 30 79
125 71 145 -8 21 -19 19 -49 -12z"/>
<path d="M3847 3929 c-51 -45 -58 -56 -53 -79 6 -35 -9 -90 -33 -122 -19 -24
-19 -24 15 -97 39 -85 46 -85 88 8 35 78 47 151 44 256 l-3 86 -58 -52z"/>
<path d="M10970 3914 c-46 -43 -49 -49 -48 -93 1 -53 -21 -99 -69 -141 l-28
-25 26 30 c15 17 34 44 43 62 17 34 22 103 7 103 -23 0 -206 -224 -257 -317
-33 -59 -35 -66 -21 -80 9 -9 39 -18 69 -21 72 -5 152 26 218 85 61 55 96 120
116 216 15 73 16 227 1 227 -4 0 -30 -21 -57 -46z"/>
<path d="M3670 3878 c1 -33 16 -38 40 -13 l23 25 -31 0 c-19 0 -32 -5 -32 -12z"/>
<path d="M10754 3866 c-44 -19 -101 -72 -129 -120 -32 -54 -58 -159 -50 -197
7 -29 7 -28 57 48 54 84 115 160 187 236 l45 47 -39 0 c-22 -1 -54 -7 -71 -14z"/>
<path d="M3736 3829 c-14 -17 -26 -34 -26 -38 0 -18 23 -71 30 -71 14 0 40 67
40 104 0 44 -10 45 -44 5z"/>
<path d="M4001 3432 c-15 -27 -14 -32 4 -32 20 0 31 28 17 42 -7 7 -14 4 -21
-10z"/>
<path d="M10586 3408 c-3 -13 -6 -45 -6 -71 0 -38 5 -53 26 -74 23 -23 31 -25
79 -20 29 3 75 15 102 27 l48 21 -22 19 c-28 22 -30 65 -5 93 16 20 16 20 -3
12 -42 -17 -141 -18 -173 -1 -39 20 -39 20 -46 -6z"/>
<path d="M10832 3378 c-18 -18 -15 -36 9 -43 24 -8 36 1 41 30 4 24 -30 33
-50 13z"/>
<path d="M3980 3355 c0 -8 7 -15 15 -15 8 0 15 7 15 15 0 8 -7 15 -15 15 -8 0
-15 -7 -15 -15z"/>
<path d="M4009 3290 l-26 -80 34 -65 c19 -36 38 -65 43 -65 13 0 77 78 94 115
16 34 21 81 10 109 -8 20 -60 52 -99 60 -30 7 -30 6 -56 -74z"/>
<path d="M3917 3354 c-3 -3 -1 -17 5 -30 8 -18 14 -21 20 -12 19 30 -2 65 -25
42z"/>
<path d="M5797 1608 c-26 -14 -57 -85 -56 -128 l0 -35 35 39 c57 65 71 153 21
124z"/>
<path d="M9351 1594 c-29 -21 -51 -72 -51 -121 l1 -38 25 30 c39 46 55 83 52
116 -3 29 -3 29 -27 13z"/>
<path d="M7567 1589 c-24 -14 -44 -56 -51 -113 -7 -46 -6 -48 10 -35 10 8 30
34 46 58 39 63 37 113 -5 90z"/>
<path d="M5663 1310 c-18 -16 -33 -31 -33 -34 0 -2 18 -15 40 -30 l40 -26 0
60 c0 33 -3 60 -7 60 -5 0 -23 -14 -40 -30z"/>
<path d="M9194 1275 c-42 -36 -50 -49 -46 -70 6 -32 15 -31 68 3 41 25 44 30
44 70 0 23 -3 42 -7 42 -5 0 -31 -21 -59 -45z"/>
<path d="M7412 1266 c-46 -43 -50 -51 -45 -81 6 -38 -23 -110 -58 -141 -13
-11 -7 3 16 41 36 60 44 98 23 111 -21 13 -195 -195 -258 -308 l-31 -57 32
-17 c69 -35 197 4 277 84 72 71 112 191 112 332 0 86 -10 91 -68 36z"/>
<path d="M9009 1234 c-56 -17 -119 -76 -152 -141 -25 -50 -41 -103 -32 -103
27 0 94 52 143 112 33 40 74 86 91 102 48 46 31 55 -50 30z"/>
<path d="M7240 1231 c-78 -24 -136 -78 -175 -164 -29 -62 -46 -177 -27 -177 6
0 13 9 17 20 10 30 110 166 181 246 35 39 64 74 64 78 0 8 -28 6 -60 -3z"/>
<path d="M9065 1150 c-33 -33 -56 -60 -51 -60 5 0 35 16 67 36 46 28 59 41 59
60 0 13 -4 24 -8 24 -4 0 -34 -27 -67 -60z"/>
<path d="M7044 786 c-3 -9 -7 -30 -8 -48 -1 -32 0 -33 54 -39 162 -19 175 -20
162 -7 -16 16 -15 49 3 75 15 21 15 21 -17 12 -49 -14 -125 -11 -159 6 -26 14
-30 14 -35 1z"/>
<path d="M7582 788 c-7 -7 -12 -16 -12 -20 0 -12 28 -10 36 3 10 17 -10 31
-24 17z"/>
<path d="M7288 759 c-25 -14 -22 -46 3 -54 24 -8 41 9 37 39 -4 24 -17 29 -40
15z"/>
<path d="M7557 720 c-6 -22 7 -35 23 -25 15 9 12 45 -4 45 -7 0 -16 -9 -19
-20z"/>
<path d="M7443 707 c-34 -12 -64 -24 -67 -27 -2 -3 30 -4 72 -3 73 2 77 3 83
27 9 32 -3 33 -88 3z"/>
<path d="M7610 721 c0 -5 -3 -16 -6 -25 -5 -13 3 -16 50 -16 64 0 71 11 22 34
-38 18 -66 21 -66 7z"/>
</g>
</svg>
